<?xml version="1.0" encoding="UTF-8"?>
<svg xmlns="http://www.w3.org/2000/svg" xmlns:xlink="http://www.w3.org/1999/xlink" width="450pt" height="449.999984pt" viewBox="0 0 450 449.999984" version="1.2">
<defs>
<clipPath id="clip1">
  <path d="M 137 12.398438 L 313.246094 12.398438 L 313.246094 191.648438 L 137 191.648438 Z M 137 12.398438 "/>
</clipPath>
<clipPath id="clip2">
  <path d="M 0 248.378906 L 176.25 248.378906 L 176.25 427.628906 L 0 427.628906 Z M 0 248.378906 "/>
</clipPath>
<clipPath id="clip3">
  <path d="M 274 248.378906 L 450 248.378906 L 450 427.628906 L 274 427.628906 Z M 274 248.378906 "/>
</clipPath>
</defs>
<g id="surface1">
<path style=" stroke:none;fill-rule:nonzero;fill:rgb(14.509583%,35.289001%,65.879822%);fill-opacity:1;" d="M 310.292969 50.601562 L 225.121094 15.335938 L 139.945312 50.601562 L 225.121094 85.863281 Z M 310.292969 50.601562 "/>
<path style=" stroke:none;fill-rule:nonzero;fill:rgb(14.509583%,35.289001%,65.879822%);fill-opacity:1;" d="M 139.945312 50.601562 L 139.945312 153.449219 L 225.121094 188.710938 L 225.121094 85.863281 Z M 139.945312 50.601562 "/>
<path style=" stroke:none;fill-rule:nonzero;fill:rgb(14.509583%,35.289001%,65.879822%);fill-opacity:1;" d="M 225.121094 85.863281 L 225.121094 188.710938 L 310.292969 153.449219 L 310.292969 50.601562 Z M 225.121094 85.863281 "/>
<g clip-path="url(#clip1)" clip-rule="nonzero">
<path style=" stroke:none;fill-rule:nonzero;fill:rgb(100%,100%,100%);fill-opacity:1;" d="M 313.109375 49.804688 C 313.085938 49.71875 313.050781 49.640625 313.015625 49.5625 C 312.953125 49.394531 312.882812 49.234375 312.789062 49.082031 C 312.734375 48.996094 312.679688 48.917969 312.617188 48.839844 C 312.519531 48.703125 312.40625 48.582031 312.28125 48.464844 C 312.207031 48.394531 312.132812 48.332031 312.050781 48.269531 C 312.003906 48.234375 311.96875 48.191406 311.921875 48.160156 C 311.8125 48.085938 311.691406 48.042969 311.578125 47.984375 C 311.519531 47.957031 311.476562 47.910156 311.414062 47.886719 L 226.238281 12.621094 C 225.515625 12.324219 224.710938 12.324219 223.988281 12.621094 L 138.816406 47.886719 C 138.753906 47.910156 138.707031 47.957031 138.648438 47.984375 C 138.53125 48.039062 138.414062 48.085938 138.308594 48.15625 C 138.261719 48.1875 138.226562 48.230469 138.179688 48.265625 C 138.097656 48.328125 138.027344 48.394531 137.953125 48.464844 C 137.832031 48.578125 137.71875 48.703125 137.617188 48.835938 C 137.554688 48.917969 137.5 48.992188 137.445312 49.078125 C 137.351562 49.230469 137.28125 49.390625 137.214844 49.558594 C 137.183594 49.640625 137.144531 49.714844 137.121094 49.800781 C 137.054688 50.058594 137.007812 50.328125 137.007812 50.601562 L 137.007812 153.449219 C 137.007812 154.636719 137.726562 155.710938 138.820312 156.164062 L 223.996094 191.425781 C 224.03125 191.441406 224.074219 191.433594 224.113281 191.449219 C 224.4375 191.570312 224.773438 191.648438 225.121094 191.648438 C 225.464844 191.648438 225.800781 191.570312 226.128906 191.449219 C 226.164062 191.433594 226.207031 191.441406 226.246094 191.425781 L 311.417969 156.164062 C 312.515625 155.710938 313.230469 154.636719 313.230469 153.449219 L 313.230469 50.601562 C 313.230469 50.328125 313.183594 50.058594 313.109375 49.804688 Z M 225.121094 18.515625 L 302.613281 50.601562 L 225.121094 82.683594 L 147.625 50.601562 Z M 142.882812 54.996094 L 222.183594 87.824219 L 222.183594 184.3125 L 142.882812 151.484375 Z M 307.355469 151.484375 L 228.058594 184.316406 L 228.058594 87.824219 L 307.355469 54.996094 Z M 307.355469 151.484375 "/>
</g>
<path style=" stroke:none;fill-rule:nonzero;fill:rgb(14.509583%,35.289001%,65.879822%);fill-opacity:1;" d="M 173.300781 286.582031 L 88.125 251.320312 L 2.949219 286.582031 L 88.125 321.84375 Z M 173.300781 286.582031 "/>
<path style=" stroke:none;fill-rule:nonzero;fill:rgb(14.509583%,35.289001%,65.879822%);fill-opacity:1;" d="M 2.949219 286.582031 L 2.949219 389.429688 L 88.125 424.691406 L 88.125 321.84375 Z M 2.949219 286.582031 "/>
<path style=" stroke:none;fill-rule:nonzero;fill:rgb(14.509583%,35.289001%,65.879822%);fill-opacity:1;" d="M 88.125 321.84375 L 88.125 424.691406 L 173.300781 389.429688 L 173.300781 286.582031 Z M 88.125 321.84375 "/>
<g clip-path="url(#clip2)" clip-rule="nonzero">
<path style=" stroke:none;fill-rule:nonzero;fill:rgb(100%,100%,100%);fill-opacity:1;" d="M 176.117188 285.785156 C 176.09375 285.699219 176.054688 285.621094 176.023438 285.542969 C 175.957031 285.375 175.886719 285.214844 175.792969 285.0625 C 175.742188 284.976562 175.683594 284.898438 175.621094 284.820312 C 175.523438 284.6875 175.410156 284.5625 175.285156 284.449219 C 175.210938 284.378906 175.136719 284.3125 175.054688 284.25 C 175.007812 284.214844 174.972656 284.171875 174.925781 284.140625 C 174.816406 284.066406 174.699219 284.023438 174.582031 283.964844 C 174.523438 283.9375 174.480469 283.890625 174.417969 283.867188 L 89.242188 248.601562 C 88.523438 248.304688 87.714844 248.304688 86.996094 248.601562 L 1.820312 283.867188 C 1.757812 283.890625 1.710938 283.9375 1.652344 283.964844 C 1.539062 284.023438 1.421875 284.066406 1.316406 284.136719 C 1.265625 284.167969 1.230469 284.210938 1.183594 284.246094 C 1.101562 284.308594 1.03125 284.378906 0.960938 284.445312 C 0.835938 284.558594 0.722656 284.683594 0.621094 284.816406 C 0.558594 284.898438 0.503906 284.972656 0.449219 285.058594 C 0.355469 285.210938 0.285156 285.375 0.222656 285.539062 C 0.191406 285.621094 0.152344 285.695312 0.128906 285.78125 C 0.0585938 286.039062 0.0117188 286.308594 0.0117188 286.582031 L 0.0117188 389.429688 C 0.0117188 390.621094 0.730469 391.691406 1.824219 392.144531 L 87 427.40625 C 87.039062 427.421875 87.078125 427.414062 87.117188 427.429688 C 87.445312 427.550781 87.777344 427.628906 88.125 427.628906 C 88.472656 427.628906 88.804688 427.550781 89.132812 427.429688 C 89.171875 427.414062 89.210938 427.421875 89.25 427.40625 L 174.425781 392.144531 C 175.519531 391.691406 176.238281 390.621094 176.238281 389.429688 L 176.238281 286.582031 C 176.238281 286.308594 176.191406 286.039062 176.117188 285.785156 Z M 88.125 254.5 L 165.621094 286.582031 L 88.125 318.664062 L 10.628906 286.582031 Z M 5.886719 290.976562 L 85.1875 323.804688 L 85.1875 420.292969 L 5.886719 387.464844 Z M 170.363281 387.464844 L 91.0625 420.296875 L 91.0625 323.804688 L 170.363281 290.976562 Z M 170.363281 387.464844 "/>
</g>
<path style=" stroke:none;fill-rule:nonzero;fill:rgb(14.509583%,35.289001%,65.879822%);fill-opacity:1;" d="M 447.289062 286.582031 L 362.113281 251.320312 L 276.941406 286.582031 L 362.113281 321.84375 Z M 447.289062 286.582031 "/>
<path style=" stroke:none;fill-rule:nonzero;fill:rgb(14.509583%,35.289001%,65.879822%);fill-opacity:1;" d="M 276.941406 286.582031 L 276.941406 389.429688 L 362.113281 424.691406 L 362.113281 321.84375 Z M 276.941406 286.582031 "/>
<path style=" stroke:none;fill-rule:nonzero;fill:rgb(14.509583%,35.289001%,65.879822%);fill-opacity:1;" d="M 362.113281 321.84375 L 362.113281 424.691406 L 447.289062 389.429688 L 447.289062 286.582031 Z M 362.113281 321.84375 "/>
<g clip-path="url(#clip3)" clip-rule="nonzero">
<path style=" stroke:none;fill-rule:nonzero;fill:rgb(100%,100%,100%);fill-opacity:1;" d="M 450.105469 285.785156 C 450.082031 285.699219 450.042969 285.621094 450.011719 285.542969 C 449.949219 285.375 449.875 285.214844 449.78125 285.0625 C 449.730469 284.976562 449.675781 284.898438 449.613281 284.820312 C 449.511719 284.6875 449.402344 284.5625 449.273438 284.449219 C 449.203125 284.378906 449.128906 284.3125 449.046875 284.25 C 449 284.214844 448.964844 284.171875 448.917969 284.140625 C 448.808594 284.066406 448.6875 284.023438 448.574219 283.964844 C 448.515625 283.9375 448.46875 283.890625 448.410156 283.867188 L 363.234375 248.601562 C 362.511719 248.304688 361.707031 248.304688 360.984375 248.601562 L 275.808594 283.867188 C 275.746094 283.890625 275.699219 283.9375 275.640625 283.964844 C 275.527344 284.023438 275.410156 284.066406 275.304688 284.136719 C 275.257812 284.167969 275.222656 284.210938 275.175781 284.246094 C 275.09375 284.308594 275.023438 284.378906 274.949219 284.445312 C 274.824219 284.558594 274.714844 284.683594 274.609375 284.816406 C 274.550781 284.898438 274.492188 284.972656 274.441406 285.058594 C 274.347656 285.210938 274.277344 285.375 274.210938 285.539062 C 274.179688 285.621094 274.140625 285.695312 274.117188 285.78125 C 274.050781 286.039062 274.003906 286.308594 274.003906 286.582031 L 274.003906 389.429688 C 274.003906 390.621094 274.71875 391.691406 275.816406 392.144531 L 360.988281 427.40625 C 361.027344 427.421875 361.070312 427.414062 361.105469 427.429688 C 361.433594 427.550781 361.769531 427.628906 362.113281 427.628906 C 362.460938 427.628906 362.796875 427.550781 363.121094 427.429688 C 363.160156 427.414062 363.203125 427.421875 363.238281 427.40625 L 448.414062 392.144531 C 449.507812 391.691406 450.226562 390.621094 450.226562 389.429688 L 450.226562 286.582031 C 450.226562 286.308594 450.179688 286.039062 450.105469 285.785156 Z M 362.113281 254.5 L 439.609375 286.582031 L 362.113281 318.664062 L 284.621094 286.582031 Z M 279.878906 290.976562 L 359.175781 323.804688 L 359.175781 420.292969 L 279.878906 387.464844 Z M 444.351562 387.464844 L 365.050781 420.296875 L 365.050781 323.804688 L 444.351562 290.976562 Z M 444.351562 387.464844 "/>
</g>
<path style=" stroke:none;fill-rule:nonzero;fill:rgb(14.509583%,35.289001%,65.879822%);fill-opacity:1;" d="M 118.914062 255.320312 L 130.171875 238.558594 C 130.417969 238.1875 130.730469 237.878906 131.101562 237.632812 C 131.472656 237.386719 131.878906 237.222656 132.320312 237.136719 C 132.757812 237.050781 133.195312 237.050781 133.632812 237.140625 C 134.074219 237.230469 134.476562 237.398438 134.847656 237.648438 C 135.21875 237.898438 135.53125 238.207031 135.777344 238.582031 C 136.027344 238.953125 136.195312 239.359375 136.28125 239.796875 C 136.367188 240.234375 136.367188 240.671875 136.277344 241.109375 C 136.191406 241.546875 136.023438 241.953125 135.773438 242.324219 L 124.515625 259.085938 C 124.265625 259.453125 123.957031 259.761719 123.585938 260.011719 C 123.210938 260.257812 122.808594 260.421875 122.367188 260.507812 C 121.929688 260.59375 121.492188 260.59375 121.054688 260.503906 C 120.613281 260.414062 120.210938 260.246094 119.835938 259.996094 C 119.464844 259.746094 119.15625 259.433594 118.910156 259.0625 C 118.660156 258.691406 118.492188 258.285156 118.40625 257.847656 C 118.320312 257.410156 118.320312 256.96875 118.40625 256.53125 C 118.496094 256.09375 118.664062 255.691406 118.914062 255.320312 Z M 137.675781 227.386719 L 148.933594 210.625 C 149.183594 210.253906 149.496094 209.945312 149.867188 209.699219 C 150.238281 209.453125 150.644531 209.285156 151.082031 209.199219 C 151.519531 209.113281 151.960938 209.117188 152.398438 209.207031 C 152.835938 209.292969 153.242188 209.464844 153.613281 209.714844 C 153.984375 209.960938 154.292969 210.273438 154.542969 210.644531 C 154.789062 211.019531 154.957031 211.421875 155.042969 211.863281 C 155.132812 212.300781 155.132812 212.738281 155.042969 213.175781 C 154.957031 213.613281 154.789062 214.019531 154.539062 214.386719 L 143.28125 231.148438 C 143.03125 231.519531 142.722656 231.828125 142.347656 232.074219 C 141.976562 232.320312 141.570312 232.488281 141.132812 232.574219 C 140.695312 232.660156 140.253906 232.65625 139.816406 232.570312 C 139.378906 232.480469 138.972656 232.308594 138.601562 232.0625 C 138.230469 231.8125 137.921875 231.5 137.671875 231.128906 C 137.425781 230.753906 137.257812 230.351562 137.171875 229.910156 C 137.082031 229.472656 137.085938 229.035156 137.171875 228.597656 C 137.257812 228.160156 137.429688 227.757812 137.675781 227.386719 Z M 156.441406 199.449219 L 167.699219 182.691406 C 167.949219 182.320312 168.257812 182.011719 168.628906 181.765625 C 169.003906 181.515625 169.40625 181.351562 169.847656 181.265625 C 170.285156 181.179688 170.722656 181.183594 171.164062 181.269531 C 171.601562 181.359375 172.007812 181.527344 172.378906 181.777344 C 172.75 182.027344 173.058594 182.339844 173.308594 182.710938 C 173.554688 183.082031 173.722656 183.488281 173.808594 183.925781 C 173.894531 184.367188 173.894531 184.804688 173.808594 185.242188 C 173.71875 185.679688 173.550781 186.082031 173.300781 186.453125 L 162.042969 203.214844 C 161.796875 203.585938 161.484375 203.894531 161.113281 204.140625 C 160.742188 204.386719 160.335938 204.554688 159.898438 204.636719 C 159.457031 204.722656 159.019531 204.722656 158.582031 204.632812 C 158.144531 204.542969 157.738281 204.375 157.367188 204.125 C 156.996094 203.875 156.683594 203.566406 156.4375 203.191406 C 156.1875 202.820312 156.019531 202.414062 155.933594 201.976562 C 155.847656 201.539062 155.847656 201.101562 155.9375 200.664062 C 156.023438 200.226562 156.191406 199.820312 156.441406 199.449219 Z M 156.441406 199.449219 "/>
<path style=" stroke:none;fill-rule:nonzero;fill:rgb(14.509583%,35.289001%,65.879822%);fill-opacity:1;" d="M 324.398438 258.460938 L 312.707031 242 C 312.449219 241.636719 312.269531 241.234375 312.171875 240.800781 C 312.070312 240.367188 312.058594 239.925781 312.136719 239.488281 C 312.210938 239.046875 312.367188 238.636719 312.605469 238.257812 C 312.84375 237.878906 313.144531 237.5625 313.511719 237.300781 C 313.875 237.042969 314.277344 236.863281 314.710938 236.761719 C 315.148438 236.664062 315.585938 236.648438 316.027344 236.722656 C 316.46875 236.796875 316.878906 236.953125 317.253906 237.191406 C 317.632812 237.425781 317.953125 237.726562 318.210938 238.089844 L 329.902344 254.554688 C 330.160156 254.917969 330.335938 255.316406 330.4375 255.753906 C 330.535156 256.1875 330.546875 256.625 330.472656 257.066406 C 330.398438 257.507812 330.238281 257.917969 330 258.296875 C 329.761719 258.675781 329.460938 258.992188 329.097656 259.253906 C 328.730469 259.511719 328.332031 259.691406 327.894531 259.792969 C 327.460938 259.890625 327.019531 259.90625 326.582031 259.832031 C 326.140625 259.757812 325.730469 259.601562 325.351562 259.363281 C 324.972656 259.125 324.65625 258.828125 324.398438 258.460938 Z M 304.914062 231.023438 L 293.222656 214.5625 C 292.964844 214.195312 292.785156 213.796875 292.6875 213.363281 C 292.589844 212.925781 292.578125 212.488281 292.652344 212.046875 C 292.726562 211.609375 292.882812 211.199219 293.121094 210.820312 C 293.359375 210.441406 293.664062 210.121094 294.027344 209.863281 C 294.394531 209.605469 294.792969 209.425781 295.230469 209.324219 C 295.664062 209.222656 296.101562 209.210938 296.542969 209.285156 C 296.984375 209.359375 297.394531 209.515625 297.773438 209.75 C 298.152344 209.988281 298.46875 210.289062 298.726562 210.652344 L 310.417969 227.117188 C 310.675781 227.480469 310.855469 227.878906 310.953125 228.316406 C 311.050781 228.75 311.066406 229.1875 310.988281 229.628906 C 310.914062 230.070312 310.757812 230.480469 310.519531 230.855469 C 310.28125 231.234375 309.980469 231.554688 309.613281 231.8125 C 309.25 232.074219 308.847656 232.253906 308.414062 232.351562 C 307.976562 232.453125 307.539062 232.464844 307.097656 232.390625 C 306.65625 232.316406 306.246094 232.164062 305.867188 231.925781 C 305.492188 231.6875 305.171875 231.386719 304.914062 231.023438 Z M 285.429688 203.585938 L 273.742188 187.121094 C 273.484375 186.757812 273.304688 186.359375 273.207031 185.921875 C 273.105469 185.488281 273.09375 185.050781 273.167969 184.609375 C 273.246094 184.167969 273.402344 183.761719 273.640625 183.382812 C 273.878906 183.003906 274.179688 182.683594 274.542969 182.425781 C 274.910156 182.164062 275.308594 181.984375 275.746094 181.886719 C 276.183594 181.785156 276.621094 181.773438 277.0625 181.847656 C 277.503906 181.921875 277.910156 182.078125 278.289062 182.3125 C 278.667969 182.550781 278.988281 182.851562 279.246094 183.214844 L 290.933594 199.675781 C 291.191406 200.042969 291.371094 200.441406 291.472656 200.875 C 291.570312 201.3125 291.582031 201.75 291.507812 202.191406 C 291.429688 202.628906 291.273438 203.039062 291.035156 203.417969 C 290.796875 203.796875 290.496094 204.117188 290.132812 204.375 C 289.765625 204.632812 289.367188 204.8125 288.929688 204.914062 C 288.492188 205.015625 288.054688 205.027344 287.613281 204.953125 C 287.175781 204.878906 286.765625 204.722656 286.386719 204.488281 C 286.007812 204.25 285.6875 203.949219 285.429688 203.585938 Z M 285.429688 203.585938 "/>
<path style=" stroke:none;fill-rule:nonzero;fill:rgb(14.509583%,35.289001%,65.879822%);fill-opacity:1;" d="M 177.96875 332.589844 L 198.160156 332.589844 C 198.605469 332.589844 199.035156 332.675781 199.445312 332.847656 C 199.859375 333.015625 200.222656 333.261719 200.539062 333.578125 C 200.855469 333.894531 201.097656 334.257812 201.269531 334.671875 C 201.4375 335.085938 201.523438 335.515625 201.523438 335.964844 C 201.523438 336.410156 201.4375 336.84375 201.269531 337.253906 C 201.097656 337.667969 200.855469 338.035156 200.539062 338.351562 C 200.222656 338.667969 199.859375 338.910156 199.445312 339.082031 C 199.035156 339.253906 198.605469 339.339844 198.160156 339.339844 L 177.96875 339.339844 C 177.523438 339.339844 177.09375 339.253906 176.679688 339.082031 C 176.269531 338.910156 175.902344 338.667969 175.589844 338.351562 C 175.273438 338.035156 175.03125 337.667969 174.859375 337.253906 C 174.6875 336.84375 174.601562 336.410156 174.601562 335.964844 C 174.601562 335.515625 174.6875 335.085938 174.859375 334.671875 C 175.03125 334.257812 175.273438 333.894531 175.589844 333.578125 C 175.902344 333.261719 176.269531 333.015625 176.679688 332.847656 C 177.09375 332.675781 177.523438 332.589844 177.96875 332.589844 Z M 211.621094 332.589844 L 231.8125 332.589844 C 232.257812 332.589844 232.6875 332.675781 233.097656 332.847656 C 233.511719 333.015625 233.875 333.261719 234.191406 333.578125 C 234.507812 333.894531 234.75 334.257812 234.921875 334.671875 C 235.089844 335.085938 235.175781 335.515625 235.175781 335.964844 C 235.175781 336.410156 235.089844 336.84375 234.921875 337.253906 C 234.75 337.667969 234.507812 338.035156 234.191406 338.351562 C 233.875 338.667969 233.511719 338.910156 233.097656 339.082031 C 232.6875 339.253906 232.257812 339.339844 231.8125 339.339844 L 211.621094 339.339844 C 211.171875 339.339844 210.746094 339.253906 210.332031 339.082031 C 209.917969 338.910156 209.554688 338.667969 209.242188 338.351562 C 208.925781 338.035156 208.683594 337.667969 208.511719 337.253906 C 208.339844 336.84375 208.253906 336.410156 208.253906 335.964844 C 208.253906 335.515625 208.339844 335.085938 208.511719 334.671875 C 208.683594 334.257812 208.925781 333.894531 209.242188 333.578125 C 209.554688 333.261719 209.917969 333.015625 210.332031 332.847656 C 210.746094 332.675781 211.171875 332.589844 211.621094 332.589844 Z M 245.273438 332.589844 L 265.464844 332.589844 C 265.910156 332.589844 266.339844 332.675781 266.75 332.847656 C 267.164062 333.015625 267.527344 333.261719 267.84375 333.578125 C 268.15625 333.894531 268.402344 334.257812 268.570312 334.671875 C 268.742188 335.085938 268.828125 335.515625 268.828125 335.964844 C 268.828125 336.410156 268.742188 336.84375 268.570312 337.253906 C 268.402344 337.667969 268.15625 338.035156 267.84375 338.351562 C 267.527344 338.667969 267.164062 338.910156 266.75 339.082031 C 266.339844 339.253906 265.910156 339.339844 265.464844 339.339844 L 245.273438 339.339844 C 244.824219 339.339844 244.394531 339.253906 243.984375 339.082031 C 243.570312 338.910156 243.207031 338.667969 242.890625 338.351562 C 242.578125 338.035156 242.332031 337.667969 242.164062 337.253906 C 241.992188 336.84375 241.90625 336.410156 241.90625 335.964844 C 241.90625 335.515625 241.992188 335.085938 242.164062 334.671875 C 242.332031 334.257812 242.578125 333.894531 242.890625 333.578125 C 243.207031 333.261719 243.570312 333.015625 243.984375 332.847656 C 244.394531 332.675781 244.824219 332.589844 245.273438 332.589844 Z M 245.273438 332.589844 "/>
</g>
</svg>
